<?xml version="1.0" encoding="utf-8"?>
<!-- Generator: Adobe Illustrator 22.1.0, SVG Export Plug-In . SVG Version: 6.00 Build 0)  -->
<svg version="1.1" id="Layer_1" xmlns="http://www.w3.org/2000/svg" xmlns:xlink="http://www.w3.org/1999/xlink" x="0px" y="0px"
	 viewBox="0 0 400 400" style="enable-background:new 0 0 400 400;" xml:space="preserve">
<style type="text/css">
	.st0{fill:#FFFFFF;}
</style>
<g>
	<path class="st0" d="M353.1,198c0.2-13.3,0.7-25.3-2.4-37c-9.5-35.7-29-64.8-58.7-86.9c-20.8-15.5-44.4-25.1-70.1-28.2
		c-38-4.5-73.8,2.3-105.8,24.1c-35.5,24.3-58.4,57.7-67.4,99.8C44.5,189.7,45,210,48.5,230c2,11.6-1.3,21.7-6.9,31.3
		c-4.9,8.5-10.3,16.8-16.5,24.5c-2.7,3.4-4.3,3.2-6.1-0.9c-8.4-18.5-14.2-37.8-17.2-57.8c-2.4-15.8-2.4-31.7-0.7-47.8
		c1.9-18.3,6.6-35.6,12.9-52.6c8.6-23.2,21.6-43.7,38.3-61.8C79.8,35.2,113,15,152.3,5.3c21.5-5.3,43.3-6.8,65.3-4.8
		c36.9,3.2,70.3,15.8,100,37.8c41.3,30.6,66.9,71.4,78.1,121.5c4.5,19.9,4,40,2.6,60.1c-1.2,17.6-5.3,34.4-11.7,50.8
		c-1.2,3.1-2.1,4-5,1.6c-2.3-2-5.1-3.4-7.6-5.2c-6.9-4.9-11.8-11-13.7-19.6c-1.5-6.8-4.5-13.4-6.3-20.1
		C351.4,217.2,353.2,206.8,353.1,198z"/>
	<path class="st0" d="M104.6,102.5c17,0.5,32.9,1.1,48.8,1.3c3.2,0,3.9,2,4.8,3.9c7.9,16.9,16.8,33.3,26.6,49.2
		c5.2,8.4,10.5,16.7,16.7,24.4c1.6,2.1,2.4,2.3,4.3,0.2c8-9.1,21.5-6.6,28,1.7c3,3.8,3.6,7.7,1.4,12c-0.1,0.1-0.2,0.2-0.2,0.3
		c-7.2,10.4-9.2,21.9-7.9,34.3c0.6,6.6,2.8,12.7,4.9,18.8c4,11.2,7.9,22.4,11.3,33.8c1.3,4.5,0.2,7.4-3.7,9.9
		c-8.9,5.9-17.7,12-25.3,19.7c-3.2,3.3-6.1,6.8-8.6,10.7c-2.9,4.5-4.2,4.8-9.1,2.9c-0.1-0.1-0.3,0-0.4-0.1c-6.7-2.3-9.7-6.3-10-14
		c-1.5-45.9-15-88.1-40-126.6c-4.6-7.1-11-12.5-17.4-17.8c-2.4-2-4.4-1.5-5.8,1.1c-1.6,2.9-2.9,5.9-4.4,8.9c-2.7,5.4-5.9,7-11.8,5.7
		c-2.9-0.6-5.6-1.7-8.1-3.2c-9.8-5.9-10.4-7.4-6.4-17.8c3.4-8.9,5.9-18.1,8.7-27.2c1.6-5.4,0.4-8-4.8-10.3c-4.5-2-9.3-3.6-14-5.2
		c-3.2-1.1-3.7-2.9-2.2-5.7c1.2-2.2,2.5-4.3,4.1-6.2c2.6-3.2,5.6-5.1,10-4.6C97.8,102.8,101.7,102.5,104.6,102.5z"/>
	<path class="st0" d="M198.8,400c-57.4-1-105.4-23-145-64.1c-4.1-4.3-7.8-9-11.6-13.6c-2-2.4-1.7-3.9,1.4-5.3
		c13.9-6.7,28.8-8.7,44-9c3.5-0.1,5.6,2.3,7.8,4.4c11.1,10.5,23.9,18.5,37.3,25.5c18.4,9.6,38.3,14,58.9,15.6
		c19.7,1.5,38.6-0.8,57.2-7.7c19.4-7.2,37.2-17.2,52.6-31.2c8.1-7.4,17.4-8.3,27.5-6.4c9.5,1.8,19.1,3.2,28.5,5.6
		c4.7,1.2,5.2,2.1,2.3,6c-26,34.3-59.4,58.2-100.6,71c-16,5-32.3,7.8-49,8.4C206.3,399.2,202.6,399.7,198.8,400z"/>
	<path class="st0" d="M299.7,111.4c-2.3,18.9,4.8,36.8,13,54.3c8.5,18.1,17.4,36.1,25.3,54.5c6.9,16.1,12,33,19.5,48.9
		c2.9,6.1,6.5,11.4,12.2,15.4c8.5,6.1,8.4,6.4,3.4,15.4c-3.1,5.6-3.3,5.9-9.7,3.7c-20.1-7-40.3-6.8-60.4-0.6
		c-6.5,2-12.6,4.9-18.6,8.2c-3.3,1.8-5.6,1.4-7.6-1.8c-1.1-1.8-2.5-3.3-3.9-4.9c-2.7-2.9-2.2-5.3,0.6-7.8c5.1-4.5,9.9-9.4,15.2-13.6
		c7.5-6,8.2-13.7,6.4-22.2c-2.1-10.2-7.9-18.8-12-28.2c-6.7-15.2-13.1-30.5-21.1-45c-2.3-4.2-5.2-6-10-5.8
		c-9.1,0.4-16.6-2.4-20.7-11.4c-1.9-4.1-1.5-7.7,1.4-11.1c3.8-4.6,7.6-9.3,11.4-13.9c2.6-3.2,4.6-6.5,4.9-10.7
		c0.5-6.3-1.6-10.7-7.8-13.1c-4.1-1.6-8-3.8-12-5.7c-5.5-2.6-6.2-5.2-3.2-10.5c1.4-2.5,3.6-4.2,5.7-6c1.3-1.1,2.8-1.4,4.3-0.6
		c7.3,3.5,15.1,3.1,22.9,2.9c8.5-0.2,17-0.5,25.5-0.7c2.8-0.1,5.5,0.1,8.3,0.7C299.7,102.9,300,103.2,299.7,111.4z"/>
	<path class="st0" d="M82.3,299.7c-8.6-0.3-15.4,0.1-22.1,1.1c-8.1,1.2-14.7,5.5-21.3,9.9c-2.4,1.6-4,1.6-5.5-0.9
		c-0.1-0.1-0.2-0.2-0.2-0.3c-6.3-8.1-6.3-8.1,0.9-15.2c8.4-8.2,13.4-18.6,18.4-29c8.7-18.4,14.1-38,20.8-57.1
		c2.2-6.2,3.8-12.8,7.6-18.3c4.7-7,9-8.9,16.1-3.7c3.1,2.3,6.5,4.2,9.2,7.1c1.9,2.1,2.6,4.3,1.7,7.3c-4.7,15.2-11.8,29.4-17.4,44.3
		c-2.9,7.7-5.3,15.4-5.6,23.7c-0.2,5.7,1.7,10.3,5.5,14.2c2.8,2.9,5.8,5.7,8.2,8.8c3.1,4.1,2,6.7-3,7.3
		C90.5,299.5,85.5,299.6,82.3,299.7z"/>
</g>
</svg>
